PathFileType	4	(X/Y/Z)	SUBJ94_3_walk_RCNL2025.trc
DataRate	CameraRate	NumFrames	NumMarkers	Units	OrigDataRate	OrigDataStartFrame	OrigNumFrames
100	100	11	25	mm	100	323	368
Frame#	Time	R_Shoulder			L_Shoulder			C7			J_Notch			R_Elbow			L_Elbow			R_Wrist			L_Wrist			R_Asis			L_Asis			Sacral			Thoracic			Sternum			R_Thigh_Lateral			R_Knee_Lateral			R_Shank_Lateral			R_Ankle_Lateral			R_Heel			R_Toe			L_Thigh_Lateral			L_Knee_Lateral			L_Shank_Lateral			L_Ankle_Lateral			L_Heel			L_Toe		
		X1	Y1	Z1	X2	Y2	Z2	X3	Y3	Z3	X4	Y4	Z4	X5	Y5	Z5	X6	Y6	Z6	X7	Y7	Z7	X8	Y8	Z8	X9	Y9	Z9	X10	Y10	Z10	X11	Y11	Z11	X12	Y12	Z12	X13	Y13	Z13	X14	Y14	Z14	X15	Y15	Z15	X16	Y16	Z16	X17	Y17	Z17	X18	Y18	Z18	X19	Y19	Z19	X20	Y20	Z20	X21	Y21	Z21	X22	Y22	Z22	X23	Y23	Z23	X24	Y24	Z24	X25	Y25	Z25
323	3.22000000	1010.781860	1268.524658	481.719330	985.520996	1272.009155	102.781891	930.813232	1353.880493	295.811401	1045.504395	1265.369995	287.137085	1018.476074	993.354065	579.852722	917.124878	996.262085	32.685135	1136.353455	800.791931	590.374115	1051.880920	809.019012	7.990778	1056.343872	884.474731	412.203461	1056.716431	875.636719	187.309967	865.883423	938.109497	287.062836	870.246826	1149.449219	295.347687	1086.849976	1072.938354	294.588745	988.156738	537.162415	471.884735	977.652222	442.889130	411.902100	957.567749	255.873077	443.429840	944.109680	54.825420	354.873779	900.234619	55.252895	306.169189	1078.787598	39.809772	325.626801	1082.316895	543.369751	92.543831	1099.934448	453.473602	145.849289	992.297241	316.691772	94.258492	861.957275	164.178665	202.734177	830.169739	174.323151	257.757935	949.038635	76.455688	211.394562
324	3.23000000	1021.567932	1268.500610	481.739166	996.023193	1271.379395	102.903259	941.507141	1353.691040	296.050262	1056.008667	1264.999756	287.381317	1034.583618	993.475830	579.628296	924.642883	996.042969	33.904175	1157.619629	804.052826	587.731537	1055.721863	806.286774	8.306748	1066.078857	883.992920	412.795471	1067.377075	875.986023	187.925842	876.078369	937.924133	287.010834	880.580200	1149.395508	295.617249	1096.990356	1072.549438	294.974640	993.143677	537.018372	471.727356	981.016113	442.806061	411.695374	959.040955	256.055878	443.014160	944.302246	55.053173	354.522339	900.521240	55.639652	305.770660	1078.937134	39.708820	325.645355	1098.360352	545.220276	93.600372	1117.902222	455.385925	147.082611	1017.963379	312.909790	94.889374	893.069214	155.087357	202.581268	860.170776	163.602356	257.352173	984.966980	72.691322	211.869080
325	3.24000000	1032.316406	1268.301636	481.725006	1006.566895	1270.556274	102.999054	952.193787	1353.314453	296.235779	1066.514526	1264.439453	287.618896	1050.560303	993.500549	579.311340	932.253479	995.672119	35.078117	1178.691406	807.391418	584.889740	1059.650879	803.473175	8.655519	1075.771851	883.375488	413.407196	1078.090820	876.088440	188.575333	886.281982	937.505493	286.828552	890.905273	1149.159058	295.816193	1107.131958	1071.981812	295.400055	998.120972	536.821167	471.580139	984.459106	442.714111	411.481171	960.612427	256.247437	442.563538	944.505127	55.300934	354.124573	900.835510	56.047882	305.312500	1079.088989	39.605198	325.641754	1113.933960	546.735596	94.608521	1135.102051	456.927307	148.283707	1043.530518	308.702759	95.477158	925.071899	145.559814	202.430740	891.244873	152.347610	256.986786	1021.553406	68.865768	212.220947
326	3.25000000	1043.044922	1267.928589	481.674744	1017.152649	1269.549438	103.065865	962.881104	1352.755127	296.368561	1077.033081	1263.693237	287.846588	1066.401733	993.428284	578.913940	939.960327	995.153076	36.206757	1199.533203	810.796204	581.861786	1063.698303	800.598541	9.026367	1085.434937	882.624939	414.037170	1088.869385	875.940369	189.250809	896.507568	936.852478	286.513794	901.235779	1148.743408	295.943298	1117.289429	1071.235962	295.855682	1003.103577	536.568604	471.444611	988.000977	442.611389	411.260681	962.273621	256.446594	442.083557	944.715271	55.569962	353.676514	901.177979	56.480255	304.788422	1079.236938	39.500340	325.616241	1128.980713	547.860474	95.554733	1151.503296	458.058289	149.436096	1068.875122	304.219940	96.000961	957.957520	135.823746	202.274567	923.406372	140.791656	256.662567	1058.735840	65.198654	212.415237
327	3.26000000	1053.770020	1267.384399	481.585327	1027.781250	1268.370728	103.099060	973.576721	1352.020386	296.448181	1087.575317	1262.767334	288.059235	1082.103638	993.260010	578.447876	947.768127	994.490967	37.289391	1220.110657	814.253876	578.662872	1067.893982	797.682892	9.408172	1095.081543	881.745117	414.681763	1099.723145	875.543823	189.941727	906.768494	935.969360	286.067078	911.585205	1148.155151	295.996918	1127.477295	1070.314087	296.329834	1008.113586	536.259583	471.320862	991.663147	442.495544	411.034180	964.018738	256.651550	441.580048	944.929932	55.861572	353.176697	901.548340	56.941002	304.195465	1079.375854	39.394054	325.570740	1143.443726	548.547852	96.427811	1167.088989	458.751434	150.526428	1093.873779	299.609283	96.441490	991.690430	126.107613	202.101532	956.630981	129.173569	256.372711	1096.438843	61.905354	212.435486
328	3.27000000	1064.506592	1266.674805	481.452942	1038.453613	1267.034790	103.093033	984.288086	1351.120850	296.473053	1098.151978	1261.670288	288.250000	1097.660889	992.998047	577.924438	955.682800	993.692688	38.324696	1240.389954	817.749054	575.310059	1072.266968	794.745850	9.789629	1104.726074	880.742188	415.335388	1110.661133	874.906616	190.635452	917.078003	934.865845	285.491241	921.966736	1147.403320	295.975067	1137.709595	1069.220581	296.809052	1013.179932	535.894653	471.208160	995.469055	442.364105	410.801910	965.847412	256.860168	441.059601	945.146851	56.177429	352.626923	901.944946	57.435947	303.535400	1079.502075	39.285362	325.508881	1157.270996	548.760925	97.218933	1181.858643	458.992310	151.544876	1118.409546	295.009186	96.783241	1026.196899	116.633797	201.899658	990.844910	117.730812	256.105499	1134.560791	59.186382	212.283615
329	3.28000000	1075.267456	1265.808594	481.273102	1049.171143	1265.558228	103.041405	995.022461	1350.069580	296.440491	1108.773804	1260.413086	288.410614	1113.066895	992.646118	577.353882	963.712158	992.767212	39.310585	1260.338318	821.264954	571.822205	1076.845764	791.806305	10.159463	1114.384888	879.624634	415.990906	1121.691162	874.041992	191.318085	927.449341	933.557068	284.790894	932.393127	1146.500244	295.875610	1147.999634	1067.962891	297.278503	1018.337952	535.476013	471.105499	999.444519	442.214844	410.564636	967.766052	257.070312	440.530060	945.364502	56.519901	352.033203	902.364685	57.972488	302.815887	1079.614624	39.173351	325.435730	1170.422607	548.475647	97.921608	1195.830566	458.780334	152.485489	1142.378784	290.542053	97.016571	1061.355591	107.610725	201.658829	1025.916138	106.690384	255.846985	1172.962524	57.215939	211.979095
330	3.29000000	1086.063599	1264.797852	481.040802	1059.936035	1263.960083	102.937279	1005.786621	1348.882812	296.346771	1119.450684	1259.010254	288.531647	1128.312988	992.209717	576.745178	971.865906	991.725525	40.244152	1279.923401	824.783173	568.220215	1081.658020	788.882629	10.506644	1124.075562	878.404114	416.639923	1132.819946	872.968018	191.975296	937.895691	932.063660	283.972168	942.876465	1145.460693	295.696320	1158.360229	1066.552124	297.722504	1023.627502	535.007690	471.012054	1003.617493	442.046051	410.324310	969.788391	257.280304	440.000916	945.582397	56.892460	351.406250	902.802307	58.559704	302.051514	1079.715088	39.057915	325.357788	1182.876831	547.683472	98.531784	1209.042603	458.128937	153.346252	1165.694702	286.309296	97.139389	1096.990234	99.224510	201.373138	1061.647705	96.259262	255.583817	1211.457886	56.129997	211.557098
331	3.30000000	1096.903809	1263.658081	480.750641	1070.750732	1262.261841	102.773445	1016.586975	1347.579224	296.187317	1130.191772	1257.479248	288.602875	1143.388550	991.695923	576.106018	980.155579	990.580750	41.121613	1299.113464	828.284180	564.526520	1086.730652	785.992615	10.820594	1133.817017	877.094910	417.273285	1144.053223	871.707642	192.593002	948.429993	930.411011	283.042450	953.428101	1144.301880	295.434937	1168.803711	1065.003174	298.125183	1029.091675	534.495850	470.927673	1008.018066	441.856689	410.084442	971.935059	257.489136	439.483582	945.801025	57.300121	350.761902	903.250732	59.208580	301.263977	1079.808105	38.940235	325.282623	1194.635620	546.393494	99.048073	1221.552612	457.065704	154.128891	1188.291382	282.388672	97.158127	1132.866455	91.630348	201.042816	1097.775757	86.615021	255.305878	1249.809204	56.014843	211.065979
332	3.31000000	1107.794800	1262.408447	480.397156	1081.618652	1260.487061	102.542610	1027.429321	1346.180420	295.956787	1141.005615	1255.841187	288.613525	1158.279785	991.113708	575.442383	988.594971	989.348022	41.938313	1317.877258	831.747284	560.765015	1092.089722	783.153320	11.091383	1143.629883	875.714478	417.881226	1155.395508	870.287842	193.157974	959.064941	928.628967	282.010345	964.058655	1143.043579	295.089386	1179.341553	1063.335815	298.470734	1034.774292	533.948547	470.853058	1012.678345	441.646576	409.850677	974.232788	257.697083	438.991699	946.022034	57.749935	350.121124	903.701294	59.932419	300.481964	1079.901123	38.822887	325.218231	1205.729614	544.634521	99.471977	1233.437622	455.631378	154.838379	1210.123169	278.833099	97.087875	1168.691895	84.944626	200.675491	1133.971313	77.897537	255.008270	1287.726807	56.897221	210.564011
333	3.32000000	1118.741455	1261.071167	479.974792	1092.543579	1258.660889	102.237625	1038.318848	1344.709595	295.649353	1151.899292	1254.120605	288.552765	1172.970093	990.473572	574.758789	997.199463	988.044312	42.688759	1336.184082	835.151093	556.960999	1097.760315	780.381317	11.309929	1153.535522	874.282654	418.453857	1166.850952	868.739197	193.658264	969.812500	926.750671	280.885620	974.777771	1141.707397	294.657806	1189.984375	1061.573975	298.743896	1040.718140	533.375793	470.789978	1017.631897	441.416351	409.630737	976.713135	257.906128	438.540863	946.248413	58.251495	349.509552	904.144653	60.747475	299.740234	1080.003418	38.709538	325.172638	1216.220581	542.455872	99.808228	1244.790649	453.878937	155.482132	1231.163940	275.671387	96.951561	1204.122192	79.238579	200.286484	1169.849365	70.202606	254.692703	1324.874878	58.737495	210.115463
